<svg xmlns="http://www.w3.org/2000/svg" viewBox="0 0 64 64" width="64" height="64">
  <defs>
    <linearGradient id="bg" x1="0" y1="0" x2="1" y2="1">
      <stop offset="0%" stop-color="#0F172A"/>
      <stop offset="100%" stop-color="#1E293B"/>
    </linearGradient>
    <linearGradient id="tower" x1="0" y1="0" x2="0" y2="1">
      <stop offset="0%" stop-color="#F59E0B"/>
      <stop offset="100%" stop-color="#EA580C"/>
    </linearGradient>
  </defs>
  <rect x="2" y="2" width="60" height="60" rx="14" fill="url(#bg)"/>
  <g stroke="rgba(148,163,184,0.18)" stroke-width="0.5">
    <path d="M2 18 H62 M2 32 H62 M2 46 H62 M18 2 V62 M32 2 V62 M46 2 V62"/>
  </g>
  <!-- Twin-tower M -->
  <path
    d="M12 50 V22 L20 16 L28 22 L32 26 L36 22 L44 16 L52 22 V50 H44 V32 H36 V50 H28 V32 H20 V50 Z"
    fill="url(#tower)" stroke="#FCD34D" stroke-width="1" stroke-linejoin="round"
  />
  <!-- Geotag pin -->
  <g transform="translate(32 14)">
    <path d="M0 -6 a4 4 0 1 1 0 -0.01 Z M0 -2 V2" fill="#FCD34D" stroke="#FCD34D" stroke-width="1"/>
    <circle cx="0" cy="-6" r="1.8" fill="#0F172A"/>
  </g>
  <!-- Hi-vis base -->
  <rect x="10" y="50" width="44" height="3" rx="1" fill="#F59E0B"/>
</svg>
